# xmcd
# 
# Track frame offsets:
#     183
#     18288
#     34743
#     48108
#     59845
#     74090
#     88473
#     108973
#     125425
#     140180
#     150010
#     164375
#     175205
#     190625
# 
# Disc length: 2812
# 
# Revision: 6
# Processed by: cddbd v1.5.2PL0 Copyright (c) Steve Scherf et al.
# Submitted via: fre:ac v1.0.31
# 
DISCID=c10afa0e
DTITLE=Various Artist - The Commitments OST
DYEAR=1991
DGENRE=Soul
TTITLE0=Mustang Sally
TTITLE1=Take Me To The River
TTITLE2=Chain Of Fools
TTITLE3=The Dark End Of The Street
TTITLE4=Destination Anywhere
TTITLE5=I Can't Stand The Rain
TTITLE6=Try A Little Tenderness
TTITLE7=Treat Her Right
TTITLE8=Do Right Woman Do Right Man
TTITLE9=Mr. Pitiful
TTITLE10=I Never Loved A Man
TTITLE11=In The Midnight Hour
TTITLE12=Bye Bye Baby
TTITLE13=Slip Away
EXTD=
EXTT0=
EXTT1=
EXTT2=
EXTT3=
EXTT4=
EXTT5=
EXTT6=
EXTT7=
EXTT8=
EXTT9=
EXTT10=
EXTT11=
EXTT12=
EXTT13=
PLAYORDER=
